<svg width="18" height="16" viewBox="0 0 18 16" fill="none" xmlns="http://www.w3.org/2000/svg">
<path d="M17.1 0.5H0.9C0.403031 0.5 0 0.979799 0 1.57143V14.4286C0 15.0202 0.403031 15.5 0.9 15.5H17.1C17.597 15.5 18 15.0202 18 14.4286V1.57143C18 0.979799 17.597 0.5 17.1 0.5ZM4.95 10.4067V10.9464C4.95 11.0944 4.84931 11.2143 4.725 11.2143H4.275C4.15069 11.2143 4.05 11.0944 4.05 10.9464V10.401C3.73247 10.3816 3.42366 10.2497 3.16772 10.021C3.05803 9.92288 3.05241 9.72734 3.15169 9.61451L3.48216 9.23917C3.56006 9.15078 3.67594 9.14676 3.76706 9.21473C3.87591 9.29576 3.99937 9.33929 4.12762 9.33929H4.91822C5.10103 9.33929 5.25009 9.14107 5.25009 8.89766C5.25009 8.69844 5.14856 8.52299 5.00344 8.47143L3.73781 8.01942C3.21497 7.83259 2.84962 7.23527 2.84962 6.56663C2.84962 5.74565 3.38541 5.07868 4.04972 5.05759V4.51786C4.04972 4.36987 4.15041 4.25 4.27472 4.25H4.72472C4.84903 4.25 4.94972 4.36987 4.94972 4.51786V5.06328C5.26725 5.0827 5.57606 5.21429 5.832 5.4433C5.94169 5.54141 5.94731 5.73694 5.84803 5.84978L5.51756 6.22511C5.43966 6.3135 5.32378 6.31752 5.23266 6.24955C5.12381 6.16819 5.00034 6.125 4.87209 6.125H4.0815C3.89869 6.125 3.74963 6.32321 3.74963 6.56663C3.74963 6.76585 3.85116 6.94129 3.99628 6.99286L5.26191 7.44487C5.78475 7.6317 6.15009 8.22902 6.15009 8.89766C6.15009 9.71897 5.61431 10.3856 4.95 10.4067ZM11.7 9.875C11.7 10.023 11.5993 10.1429 11.475 10.1429H8.325C8.20069 10.1429 8.1 10.023 8.1 9.875V9.33929C8.1 9.19129 8.20069 9.07143 8.325 9.07143H11.475C11.5993 9.07143 11.7 9.19129 11.7 9.33929V9.875ZM16.2 9.875C16.2 10.023 16.0993 10.1429 15.975 10.1429H13.725C13.6007 10.1429 13.5 10.023 13.5 9.875V9.33929C13.5 9.19129 13.6007 9.07143 13.725 9.07143H15.975C16.0993 9.07143 16.2 9.19129 16.2 9.33929V9.875ZM16.2 6.66071C16.2 6.80871 16.0993 6.92857 15.975 6.92857H8.325C8.20069 6.92857 8.1 6.80871 8.1 6.66071V6.125C8.1 5.97701 8.20069 5.85714 8.325 5.85714H15.975C16.0993 5.85714 16.2 5.97701 16.2 6.125V6.66071Z" fill="black"/>
<path d="M17.1 0.5H0.9C0.403031 0.5 0 0.979799 0 1.57143V14.4286C0 15.0202 0.403031 15.5 0.9 15.5H17.1C17.597 15.5 18 15.0202 18 14.4286V1.57143C18 0.979799 17.597 0.5 17.1 0.5ZM4.95 10.4067V10.9464C4.95 11.0944 4.84931 11.2143 4.725 11.2143H4.275C4.15069 11.2143 4.05 11.0944 4.05 10.9464V10.401C3.73247 10.3816 3.42366 10.2497 3.16772 10.021C3.05803 9.92288 3.05241 9.72734 3.15169 9.61451L3.48216 9.23917C3.56006 9.15078 3.67594 9.14676 3.76706 9.21473C3.87591 9.29576 3.99937 9.33929 4.12762 9.33929H4.91822C5.10103 9.33929 5.25009 9.14107 5.25009 8.89766C5.25009 8.69844 5.14856 8.52299 5.00344 8.47143L3.73781 8.01942C3.21497 7.83259 2.84962 7.23527 2.84962 6.56663C2.84962 5.74565 3.38541 5.07868 4.04972 5.05759V4.51786C4.04972 4.36987 4.15041 4.25 4.27472 4.25H4.72472C4.84903 4.25 4.94972 4.36987 4.94972 4.51786V5.06328C5.26725 5.0827 5.57606 5.21429 5.832 5.4433C5.94169 5.54141 5.94731 5.73694 5.84803 5.84978L5.51756 6.22511C5.43966 6.3135 5.32378 6.31752 5.23266 6.24955C5.12381 6.16819 5.00034 6.125 4.87209 6.125H4.0815C3.89869 6.125 3.74963 6.32321 3.74963 6.56663C3.74963 6.76585 3.85116 6.94129 3.99628 6.99286L5.26191 7.44487C5.78475 7.6317 6.15009 8.22902 6.15009 8.89766C6.15009 9.71897 5.61431 10.3856 4.95 10.4067ZM11.7 9.875C11.7 10.023 11.5993 10.1429 11.475 10.1429H8.325C8.20069 10.1429 8.1 10.023 8.1 9.875V9.33929C8.1 9.19129 8.20069 9.07143 8.325 9.07143H11.475C11.5993 9.07143 11.7 9.19129 11.7 9.33929V9.875ZM16.2 9.875C16.2 10.023 16.0993 10.1429 15.975 10.1429H13.725C13.6007 10.1429 13.5 10.023 13.5 9.875V9.33929C13.5 9.19129 13.6007 9.07143 13.725 9.07143H15.975C16.0993 9.07143 16.2 9.19129 16.2 9.33929V9.875ZM16.2 6.66071C16.2 6.80871 16.0993 6.92857 15.975 6.92857H8.325C8.20069 6.92857 8.1 6.80871 8.1 6.66071V6.125C8.1 5.97701 8.20069 5.85714 8.325 5.85714H15.975C16.0993 5.85714 16.2 5.97701 16.2 6.125V6.66071Z" fill="#4C4C4C"/>
</svg>
