<svg width="17" height="18" viewBox="0 0 17 18" fill="none" xmlns="http://www.w3.org/2000/svg">
<path d="M0.41213 5.4149L8.14639 8.92343C8.37217 9.02602 8.6275 9.02602 8.85328 8.92343L16.5875 5.4149C17.137 5.16555 17.137 4.33515 16.5875 4.0858L8.85361 0.576946C8.74268 0.526242 8.62214 0.5 8.50017 0.5C8.3782 0.5 8.25765 0.526242 8.14672 0.576946L0.41213 4.08547C-0.137377 4.33482 -0.137377 5.16555 0.41213 5.4149ZM16.5879 8.34603L14.6591 7.47181L9.29222 9.90456C9.04121 10.0184 8.77459 10.0762 8.5 10.0762C8.22541 10.0762 7.95913 10.0184 7.70778 9.90456L2.34121 7.47181L0.41213 8.34603C-0.137377 8.59505 -0.137377 9.42512 0.41213 9.67414L8.14639 13.18C8.37217 13.2823 8.6275 13.2823 8.85328 13.18L16.5879 9.67414C17.1374 9.42512 17.1374 8.59505 16.5879 8.34603ZM16.5879 12.5893L14.6664 11.7184L9.29222 14.1545C9.04121 14.2684 8.77459 14.3262 8.5 14.3262C8.22541 14.3262 7.95913 14.2684 7.70778 14.1545L2.33391 11.7184L0.41213 12.5893C-0.137377 12.8383 -0.137377 13.6684 0.41213 13.9174L8.14639 17.4233C8.37217 17.5256 8.6275 17.5256 8.85328 17.4233L16.5879 13.9174C17.1374 13.6684 17.1374 12.8383 16.5879 12.5893Z" fill="#4C4C4C"/>
</svg>
