<svg width="17" height="16" viewBox="0 0 17 16" fill="none" xmlns="http://www.w3.org/2000/svg">
<path d="M8.51885 0C3.71944 0 0 3.30146 0 7.76072C0 10.0931 1.01829 12.1087 2.67579 13.501C2.96198 13.7433 2.90302 13.8836 2.95169 15.3795C2.95553 15.4843 2.98654 15.5866 3.04202 15.6775C3.09751 15.7684 3.17578 15.8451 3.27002 15.901C3.36426 15.9569 3.47159 15.9903 3.58267 15.9982C3.69374 16.0061 3.80518 15.9883 3.90726 15.9463C5.72071 15.1946 5.74401 15.1353 6.05145 15.214C11.3053 16.575 17 13.4104 17 7.76072C17 3.30146 13.3186 0 8.51885 0ZM13.6339 5.97224L11.1319 9.7005C11.0374 9.84069 10.9132 9.961 10.767 10.0539C10.6208 10.1468 10.4558 10.2103 10.2824 10.2403C10.1089 10.2704 9.93069 10.2664 9.75893 10.2287C9.58717 10.1909 9.42555 10.1201 9.28419 10.0208L7.29355 8.61851C7.20456 8.55569 7.09632 8.52173 6.98508 8.52173C6.87384 8.52173 6.7656 8.55569 6.67661 8.61851L3.99054 10.536C3.63204 10.7918 3.16248 10.3876 3.40411 10.0305L5.90613 6.30226C6.00058 6.16203 6.12479 6.04168 6.27098 5.94875C6.41717 5.85583 6.58218 5.79234 6.75566 5.76226C6.92914 5.73218 7.10736 5.73617 7.27913 5.77397C7.4509 5.81177 7.61252 5.88256 7.75385 5.98192L9.74381 7.38392C9.8328 7.44675 9.94104 7.4807 10.0523 7.4807C10.1635 7.4807 10.2718 7.44675 10.3607 7.38392L13.0482 5.46834C13.406 5.21091 13.8756 5.6148 13.6339 5.97224Z" fill="#4C4C4C"/>
</svg>
