<svg width="17" height="18" viewBox="0 0 17 18" fill="none" xmlns="http://www.w3.org/2000/svg">
<path d="M15.9786 6.03335C16.0848 6.32222 15.9952 6.64429 15.7661 6.85015L14.3284 8.15835C14.3649 8.43394 14.3848 8.71616 14.3848 9.00171C14.3848 9.28726 14.3649 9.56948 14.3284 9.84507L15.7661 11.1533C15.9952 11.3591 16.0848 11.6812 15.9786 11.9701C15.8325 12.3652 15.6565 12.7437 15.454 13.1089L15.2979 13.3779C15.0788 13.7431 14.8331 14.0884 14.5641 14.4138C14.3682 14.6529 14.0429 14.7326 13.7507 14.6396L11.9013 14.0519C11.4563 14.3939 10.9649 14.6794 10.4403 14.8953L10.0253 16.7912C9.95887 17.0933 9.72645 17.3324 9.42098 17.3822C8.96278 17.4585 8.49129 17.4984 8.00985 17.4984C7.5284 17.4984 7.05692 17.4585 6.59871 17.3822C6.29325 17.3324 6.06082 17.0933 5.99442 16.7912L5.57938 14.8953C5.05477 14.6794 4.56336 14.3939 4.11844 14.0519L2.27235 14.6429C1.98016 14.7359 1.65477 14.6529 1.45887 14.4171C1.18993 14.0917 0.944222 13.7464 0.725082 13.3812L0.569027 13.1123C0.366488 12.747 0.190511 12.3685 0.0444177 11.9734C-0.0618323 11.6845 0.0278161 11.3625 0.256918 11.1566L1.69461 9.84839C1.65809 9.56948 1.63817 9.28726 1.63817 9.00171C1.63817 8.71616 1.65809 8.43394 1.69461 8.15835L0.256918 6.85015C0.0278161 6.64429 -0.0618323 6.32222 0.0444177 6.03335C0.190511 5.63823 0.366488 5.25972 0.569027 4.89448L0.725082 4.62554C0.944222 4.2603 1.18993 3.91499 1.45887 3.5896C1.65477 3.35054 1.98016 3.27085 2.27235 3.36382L4.12176 3.95151C4.56668 3.60952 5.05809 3.32397 5.5827 3.10815L5.99774 1.21226C6.06414 0.910107 6.29657 0.671045 6.60203 0.62124C7.06024 0.541553 7.53172 0.501709 8.01317 0.501709C8.49461 0.501709 8.9661 0.541553 9.4243 0.61792C9.72977 0.667725 9.96219 0.906787 10.0286 1.20894L10.4436 3.10483C10.9682 3.32065 11.4597 3.6062 11.9046 3.94819L13.754 3.3605C14.0462 3.26753 14.3716 3.35054 14.5675 3.58628C14.8364 3.91167 15.0821 4.25698 15.3013 4.62222L15.4573 4.89116C15.6598 5.2564 15.8358 5.63491 15.9819 6.03003L15.9786 6.03335ZM8.01317 11.658C8.71765 11.658 9.39328 11.3781 9.89142 10.88C10.3896 10.3818 10.6694 9.70619 10.6694 9.00171C10.6694 8.29723 10.3896 7.6216 9.89142 7.12346C9.39328 6.62531 8.71765 6.34546 8.01317 6.34546C7.30869 6.34546 6.63306 6.62531 6.13492 7.12346C5.63677 7.6216 5.35692 8.29723 5.35692 9.00171C5.35692 9.70619 5.63677 10.3818 6.13492 10.88C6.63306 11.3781 7.30869 11.658 8.01317 11.658Z" fill="#4C4C4C"/>
</svg>
