<svg width="20" height="13" viewBox="0 0 20 13" fill="none" xmlns="http://www.w3.org/2000/svg">
<path d="M19.8852 7.7219L17.3705 11.9251C17.1748 12.2522 16.8946 12.5235 16.5578 12.7122C16.221 12.9008 15.8394 13 15.451 13H1.56337C0.920209 13 0.519479 12.3198 0.843542 11.7781L3.35826 7.57494C3.55397 7.24784 3.83418 6.97646 4.17098 6.78785C4.50777 6.59925 4.88938 6.5 5.27778 6.5H19.1654C19.8086 6.5 20.2093 7.18023 19.8852 7.7219ZM5.27778 5.41667H16.6667V3.79167C16.6667 2.89419 15.9205 2.16667 15 2.16667H9.44445L7.22222 0H1.66667C0.746181 0 0 0.727526 0 1.625V11.038L2.39851 7.02907C2.99354 6.03451 4.09684 5.41667 5.27778 5.41667Z" fill="#4C4C4C"/>
</svg>
