<svg width="21" height="24" viewBox="0 0 21 24" fill="none" xmlns="http://www.w3.org/2000/svg">
<path d="M20.4375 7.5H0.5625C0.251859 7.5 0 7.24814 0 6.9375V5.25C0 4.00734 1.00734 3 2.25 3H4.5V0.5625C4.5 0.251859 4.75186 0 5.0625 0H6.9375C7.24814 0 7.5 0.251859 7.5 0.5625V3H13.5V0.5625C13.5 0.251859 13.7519 0 14.0625 0H15.9375C16.2481 0 16.5 0.251859 16.5 0.5625V3H18.75C19.9927 3 21 4.00734 21 5.25V6.9375C21 7.24814 20.7481 7.5 20.4375 7.5ZM0.5625 9H20.4375C20.7481 9 21 9.25186 21 9.5625V21.75C21 22.9927 19.9927 24 18.75 24H2.25C1.00734 24 0 22.9927 0 21.75V9.5625C0 9.25186 0.251859 9 0.5625 9ZM16.1857 13.4975L14.8653 12.1664C14.6466 11.9458 14.2904 11.9444 14.0699 12.1632L9.09937 17.0937L6.94406 14.9209C6.7253 14.7004 6.36909 14.6989 6.14855 14.9177L4.81744 16.2382C4.59689 16.457 4.59544 16.8131 4.81425 17.0337L8.68617 20.9369C8.90494 21.1575 9.26109 21.1589 9.48164 20.9401L16.1826 14.293C16.4031 14.0742 16.4046 13.7181 16.1857 13.4975Z" fill="black"/>
</svg>
