<svg width="29" height="26" viewBox="0 0 29 26" fill="none" xmlns="http://www.w3.org/2000/svg">
<g filter="url(#filter0_d_12_88)">
<path d="M23.95 0H5.05C4.4702 0 4 0.575759 4 1.28571V16.7143C4 17.4242 4.4702 18 5.05 18H23.95C24.5298 18 25 17.4242 25 16.7143V1.28571C25 0.575759 24.5298 0 23.95 0ZM9.775 11.888V12.5357C9.775 12.7133 9.65753 12.8571 9.5125 12.8571H8.9875C8.84247 12.8571 8.725 12.7133 8.725 12.5357V11.8812C8.35455 11.8579 7.99427 11.6996 7.69567 11.4252C7.5677 11.3075 7.56114 11.0728 7.67697 10.9374L8.06252 10.487C8.15341 10.3809 8.28859 10.3761 8.39491 10.4577C8.52189 10.5549 8.66594 10.6071 8.81556 10.6071H9.73792C9.9512 10.6071 10.1251 10.3693 10.1251 10.0772C10.1251 9.83813 10.0067 9.62759 9.83734 9.56571L8.36078 9.0233C7.7508 8.79911 7.32456 8.08232 7.32456 7.27996C7.32456 6.29478 7.94964 5.49442 8.72467 5.46911V4.82143C8.72467 4.64384 8.84214 4.5 8.98717 4.5H9.51217C9.6572 4.5 9.77467 4.64384 9.77467 4.82143V5.47594C10.1451 5.49924 10.5054 5.65714 10.804 5.93196C10.932 6.04969 10.9385 6.28433 10.8227 6.41973L10.4372 6.87013C10.3463 6.97621 10.2111 6.98103 10.1048 6.89946C9.97778 6.80183 9.83373 6.75 9.68411 6.75H8.76175C8.54847 6.75 8.37456 6.98786 8.37456 7.27996C8.37456 7.51902 8.49302 7.72955 8.66233 7.79143L10.1389 8.33384C10.7489 8.55804 11.1751 9.27482 11.1751 10.0772C11.1751 11.0628 10.55 11.8627 9.775 11.888ZM17.65 11.25C17.65 11.4276 17.5325 11.5714 17.3875 11.5714H13.7125C13.5675 11.5714 13.45 11.4276 13.45 11.25V10.6071C13.45 10.4296 13.5675 10.2857 13.7125 10.2857H17.3875C17.5325 10.2857 17.65 10.4296 17.65 10.6071V11.25ZM22.9 11.25C22.9 11.4276 22.7825 11.5714 22.6375 11.5714H20.0125C19.8675 11.5714 19.75 11.4276 19.75 11.25V10.6071C19.75 10.4296 19.8675 10.2857 20.0125 10.2857H22.6375C22.7825 10.2857 22.9 10.4296 22.9 10.6071V11.25ZM22.9 7.39286C22.9 7.57045 22.7825 7.71429 22.6375 7.71429H13.7125C13.5675 7.71429 13.45 7.57045 13.45 7.39286V6.75C13.45 6.57241 13.5675 6.42857 13.7125 6.42857H22.6375C22.7825 6.42857 22.9 6.57241 22.9 6.75V7.39286Z" fill="black"/>
</g>
<defs>
<filter id="filter0_d_12_88" x="0" y="0" width="29" height="26" filterUnits="userSpaceOnUse" color-interpolation-filters="sRGB">
<feFlood flood-opacity="0" result="BackgroundImageFix"/>
<feColorMatrix in="SourceAlpha" type="matrix" values="0 0 0 0 0 0 0 0 0 0 0 0 0 0 0 0 0 0 127 0" result="hardAlpha"/>
<feOffset dy="4"/>
<feGaussianBlur stdDeviation="2"/>
<feComposite in2="hardAlpha" operator="out"/>
<feColorMatrix type="matrix" values="0 0 0 0 0 0 0 0 0 0 0 0 0 0 0 0 0 0 0.25 0"/>
<feBlend mode="normal" in2="BackgroundImageFix" result="effect1_dropShadow_12_88"/>
<feBlend mode="normal" in="SourceGraphic" in2="effect1_dropShadow_12_88" result="shape"/>
</filter>
</defs>
</svg>
