<svg width="21" height="22" viewBox="0 0 21 22" fill="none" xmlns="http://www.w3.org/2000/svg">
<path d="M0.509101 6.57135L10.0632 10.9054C10.3421 11.0321 10.6575 11.0321 10.9364 10.9054L20.4905 6.57135C21.1693 6.26333 21.1693 5.23754 20.4905 4.92952L10.9368 0.595051C10.7998 0.532417 10.6509 0.5 10.5002 0.5C10.3495 0.5 10.2006 0.532417 10.0636 0.595051L0.509101 4.92911C-0.1697 5.23713 -0.1697 6.26333 0.509101 6.57135ZM20.4909 10.1922L18.1083 9.11223L11.4786 12.1174C11.1685 12.2581 10.8392 12.3295 10.5 12.3295C10.1608 12.3295 9.83186 12.2581 9.52138 12.1174L2.89209 9.11223L0.509101 10.1922C-0.1697 10.4998 -0.1697 11.5251 0.509101 11.8328L10.0632 16.1635C10.3421 16.2899 10.6575 16.2899 10.9364 16.1635L20.4909 11.8328C21.1697 11.5251 21.1697 10.4998 20.4909 10.1922ZM20.4909 15.4339L18.1173 14.3581L11.4786 17.3673C11.1685 17.508 10.8392 17.5794 10.5 17.5794C10.1608 17.5794 9.83186 17.508 9.52138 17.3673L2.88306 14.3581L0.509101 15.4339C-0.1697 15.7415 -0.1697 16.7669 0.509101 17.0745L10.0632 21.4053C10.3421 21.5316 10.6575 21.5316 10.9364 21.4053L20.4909 17.0745C21.1697 16.7669 21.1697 15.7415 20.4909 15.4339Z" fill="black"/>
</svg>
