<svg width="25" height="26" viewBox="0 0 25 26" fill="none" xmlns="http://www.w3.org/2000/svg">
<path d="M9.84009 9.0376L12.5598 11.7622C12.7112 11.9136 12.7112 12.1626 12.5598 12.314L12.0081 12.8657C11.8567 13.0171 11.6077 13.0171 11.4563 12.8657L8.73657 10.1411L6.52466 12.353L9.24927 15.0776C9.40063 15.229 9.40063 15.478 9.24927 15.6294L8.69751 16.1812C8.54614 16.3325 8.29712 16.3325 8.14575 16.1812L5.42114 13.4517L4.13208 14.7407C3.28735 15.5854 2.88208 16.7476 3.00903 17.9341L3.35571 21.0396L0.113525 24.2817C-0.0378418 24.4331 -0.0378418 24.6821 0.113525 24.8335L0.665283 25.3853C0.81665 25.5366 1.06567 25.5366 1.21704 25.3853L4.45435 22.1479L7.55981 22.4946C8.72681 22.6216 9.89868 22.231 10.7532 21.3716L19.635 12.4897L13.009 5.86377L9.84009 9.0376ZM24.8889 4.48193L21.0217 0.614746C20.8704 0.463379 20.6213 0.463379 20.47 0.614746L19.9182 1.1665C19.7668 1.31787 19.7668 1.56689 19.9182 1.71826L21.3 3.1001L19.0881 5.31201L16.3245 2.54834L15.4944 1.71826C15.343 1.56689 15.094 1.56689 14.9426 1.71826L13.2874 3.37354C13.136 3.5249 13.136 3.77393 13.2874 3.92529L14.1174 4.75537L20.7434 11.3911L21.5735 12.2212C21.7249 12.3726 21.9739 12.3726 22.1252 12.2212L23.7805 10.561C23.9319 10.4097 23.9319 10.1606 23.7805 10.0093L20.1917 6.42041L22.4036 4.2085L23.7854 5.59033C23.9368 5.7417 24.1858 5.7417 24.3372 5.59033L24.8889 5.03857C25.0403 4.88232 25.0403 4.63818 24.8889 4.48193Z" fill="black"/>
</svg>
