<svg width="21" height="22" viewBox="0 0 21 22" fill="none" xmlns="http://www.w3.org/2000/svg">
<path d="M10.5233 0.5C4.5946 0.5 0 4.83317 0 10.6859C0 13.7472 1.25788 16.3926 3.30538 18.2201C3.65891 18.5381 3.58609 18.7222 3.64621 20.6856C3.65094 20.8231 3.68925 20.9574 3.75779 21.0767C3.82633 21.196 3.92303 21.2968 4.03944 21.3701C4.15585 21.4435 4.28844 21.4873 4.42565 21.4976C4.56286 21.508 4.70051 21.4846 4.82661 21.4295C7.06675 20.443 7.09554 20.3651 7.47532 20.4684C13.9654 22.2547 21 18.1011 21 10.6859C21 4.83317 16.4524 0.5 10.5233 0.5ZM16.8419 8.33857L13.7512 13.2319C13.6345 13.4159 13.481 13.5738 13.3004 13.6957C13.1198 13.8177 12.916 13.901 12.7017 13.9404C12.4874 13.9799 12.2673 13.9747 12.0551 13.9251C11.843 13.8756 11.6433 13.7827 11.4687 13.6523L9.00968 11.8118C8.89975 11.7293 8.76604 11.6848 8.62863 11.6848C8.49122 11.6848 8.35751 11.7293 8.24758 11.8118L4.9295 14.3285C4.48663 14.6643 3.90659 14.1338 4.20508 13.665L7.29581 8.77171C7.41248 8.58766 7.56592 8.4297 7.7465 8.30774C7.92709 8.18578 8.13092 8.10244 8.34523 8.06297C8.55953 8.02349 8.77968 8.02872 8.99186 8.07833C9.20405 8.12795 9.4037 8.22087 9.57829 8.35127L12.0365 10.1914C12.1464 10.2739 12.2801 10.3184 12.4175 10.3184C12.5549 10.3184 12.6886 10.2739 12.7986 10.1914L16.1183 7.6772C16.5604 7.33932 17.1404 7.86943 16.8419 8.33857Z" fill="black"/>
</svg>
