<svg width="22" height="26" viewBox="0 0 22 26" fill="none" xmlns="http://www.w3.org/2000/svg">
<path d="M10.9375 25.5C12.6621 25.5 14.0611 24.1011 14.0611 22.375H7.814C7.814 24.1011 9.21292 25.5 10.9375 25.5ZM21.4546 18.1899C20.5113 17.1763 18.7461 15.6514 18.7461 10.6562C18.7461 6.8623 16.086 3.8252 12.4991 3.08008V2.0625C12.4991 1.19971 11.7998 0.5 10.9375 0.5C10.0752 0.5 9.37601 1.19971 9.37601 2.0625V3.08008C5.7891 3.8252 3.12894 6.8623 3.12894 10.6562C3.12894 15.6514 1.3638 17.1763 0.420444 18.1899C0.127475 18.5049 -0.00240765 18.8813 3.37592e-05 19.25C0.00540485 20.0508 0.633823 20.8125 1.56742 20.8125H20.3077C21.2412 20.8125 21.8702 20.0508 21.875 19.25C21.8775 18.8813 21.7476 18.5044 21.4546 18.1899Z" fill="black"/>
</svg>
