<svg width="17" height="17" viewBox="0 0 17 17" fill="none" xmlns="http://www.w3.org/2000/svg">
<path d="M12.1555 11.0012L11.8396 11.4052H12.3525H12.8937C13.0409 11.4052 13.1796 11.4625 13.2814 11.5644L16.5911 14.8734C16.5913 14.8736 16.5914 14.8738 16.5916 14.8739C16.8034 15.0885 16.8032 15.4352 16.5887 15.6496L15.649 16.5891L15.6481 16.5901C15.4376 16.8028 15.0919 16.8041 14.8769 16.5891L11.5663 13.2791C11.4644 13.1772 11.4071 13.0386 11.4071 12.8915V12.3504V11.8376L11.0031 12.1534C9.87346 13.0365 8.45297 13.5612 6.90676 13.5612C3.22947 13.5612 0.25 10.5821 0.25 6.90558C0.25 3.22902 3.22947 0.25 6.90676 0.25C10.584 0.25 13.5635 3.22902 13.5635 6.90558C13.5635 8.45149 13.0388 9.87172 12.1555 11.0012ZM2.40644 6.90558C2.40644 9.39437 4.42122 11.4052 6.90676 11.4052C9.39587 11.4052 11.4071 9.39079 11.4071 6.90558C11.4071 4.41679 9.39229 2.40599 6.90676 2.40599C4.41764 2.40599 2.40644 4.42036 2.40644 6.90558Z" fill="#919191" stroke="white" stroke-width="0.5"/>
</svg>
