<svg width="20" height="15" viewBox="0 0 20 15" fill="none" xmlns="http://www.w3.org/2000/svg">
<path d="M0 13.5C0 14.0522 0.447812 14.5 1 14.5H19C19.5522 14.5 20 14.0522 20 13.5V3.5H0V13.5ZM14 7C14 6.72375 14.2238 6.5 14.5 6.5H17.5C17.7763 6.5 18 6.72375 18 7V8C18 8.27625 17.7763 8.5 17.5 8.5H14.5C14.2238 8.5 14 8.27625 14 8V7ZM14 10.75C14 10.6119 14.1119 10.5 14.25 10.5H17.75C17.8881 10.5 18 10.6119 18 10.75V11.25C18 11.3881 17.8881 11.5 17.75 11.5H14.25C14.1119 11.5 14 11.3881 14 11.25V10.75ZM2 7.75C2 7.61188 2.11188 7.5 2.25 7.5H11.75C11.8881 7.5 12 7.61188 12 7.75V8.25C12 8.38812 11.8881 8.5 11.75 8.5H2.25C2.11188 8.5 2 8.38812 2 8.25V7.75ZM2 10.75C2 10.6119 2.11188 10.5 2.25 10.5H7.75C7.88812 10.5 8 10.6119 8 10.75V11.25C8 11.3881 7.88812 11.5 7.75 11.5H2.25C2.11188 11.5 2 11.3881 2 11.25V10.75ZM19.5 0.5H0.5C0.22375 0.5 0 0.72375 0 1V2.5H20V1C20 0.72375 19.7763 0.5 19.5 0.5Z" fill="white"/>
</svg>
