<svg width="15" height="15" viewBox="0 0 15 15" fill="none" xmlns="http://www.w3.org/2000/svg">
<path d="M14.796 5.12108L13.6359 3.96109C13.3605 3.68574 12.9152 3.68574 12.6428 3.96109L5.62633 10.9767L2.36274 7.71054C2.08735 7.43519 1.64205 7.43519 1.3696 7.71054L0.206538 8.87346C-0.068846 9.14881 -0.068846 9.59405 0.206538 9.8694L5.12829 14.7935C5.40368 15.0688 5.84898 15.0688 6.12143 14.7935L14.7931 6.11702C15.0685 5.83874 15.0685 5.3935 14.796 5.12108ZM5.29528 8.22609C5.47692 8.41063 5.77574 8.41063 5.95737 8.22609L12.051 2.12737C12.2326 1.94283 12.2326 1.64698 12.051 1.46536L10.7268 0.138407C10.5452 -0.0461358 10.2463 -0.0461358 10.0647 0.138407L5.62633 4.57623L4.00332 2.9505C3.82168 2.76595 3.52286 2.76595 3.34123 2.9505L2.01411 4.27745C1.83247 4.46199 1.83247 4.75785 2.01411 4.93946L5.29528 8.22609Z" fill="white"/>
</svg>
