<svg width="20" height="54" viewBox="0 0 20 54" fill="none" xmlns="http://www.w3.org/2000/svg">
<path d="M10 0C13.6819 0 16.6667 3.0221 16.6667 6.75C16.6667 10.4779 13.6819 13.5 10 13.5C6.31812 13.5 3.33333 10.4779 3.33333 6.75C3.33333 3.0221 6.31812 0 10 0ZM15 15.1875H13.8167C11.4509 16.2889 8.65104 16.3365 6.18333 15.1875H5C2.23854 15.1875 0 17.454 0 20.25V34.5938C0 35.9917 1.11927 37.125 2.5 37.125H4.16667V51.4688C4.16667 52.8667 5.28594 54 6.66667 54H13.3333C14.7141 54 15.8333 52.8667 15.8333 51.4688V37.125H17.5C18.8807 37.125 20 35.9917 20 34.5938V20.25C20 17.454 17.7615 15.1875 15 15.1875Z" fill="#075985"/>
</svg>
