<svg width="25" height="19" viewBox="0 0 25 19" fill="none" xmlns="http://www.w3.org/2000/svg">
<path d="M0 17C0 17.6902 0.559766 18.25 1.25 18.25H23.75C24.4402 18.25 25 17.6902 25 17V4.5H0V17ZM17.5 8.875C17.5 8.52969 17.7797 8.25 18.125 8.25H21.875C22.2203 8.25 22.5 8.52969 22.5 8.875V10.125C22.5 10.4703 22.2203 10.75 21.875 10.75H18.125C17.7797 10.75 17.5 10.4703 17.5 10.125V8.875ZM17.5 13.5625C17.5 13.3898 17.6398 13.25 17.8125 13.25H22.1875C22.3602 13.25 22.5 13.3898 22.5 13.5625V14.1875C22.5 14.3602 22.3602 14.5 22.1875 14.5H17.8125C17.6398 14.5 17.5 14.3602 17.5 14.1875V13.5625ZM2.5 9.8125C2.5 9.63984 2.63984 9.5 2.8125 9.5H14.6875C14.8602 9.5 15 9.63984 15 9.8125V10.4375C15 10.6102 14.8602 10.75 14.6875 10.75H2.8125C2.63984 10.75 2.5 10.6102 2.5 10.4375V9.8125ZM2.5 13.5625C2.5 13.3898 2.63984 13.25 2.8125 13.25H9.6875C9.86016 13.25 10 13.3898 10 13.5625V14.1875C10 14.3602 9.86016 14.5 9.6875 14.5H2.8125C2.63984 14.5 2.5 14.3602 2.5 14.1875V13.5625ZM24.375 0.75H0.625C0.279687 0.75 0 1.02969 0 1.375V3.25H25V1.375C25 1.02969 24.7203 0.75 24.375 0.75Z" fill="#4C4C4C"/>
</svg>
