<svg width="23" height="23" viewBox="0 0 23 23" fill="none" xmlns="http://www.w3.org/2000/svg">
<path d="M19.5623 6.25046L19.5633 6.24951C19.8827 5.92671 20.4065 5.92535 20.7316 6.25046L22.5105 8.0291C22.8292 8.34784 22.8321 8.87259 22.5055 9.20309C22.5054 9.20326 22.5052 9.20342 22.505 9.20359L9.20937 22.5066L9.20849 22.5075C8.8891 22.8303 8.36536 22.8317 8.0402 22.5066C8.04018 22.5066 8.04016 22.5066 8.04015 22.5066L0.49351 14.9564L0.493457 14.9563C0.168848 14.6317 0.168848 14.1073 0.493457 13.7828L2.27681 11.9996L2.27775 11.9987C2.59713 11.6759 3.12086 11.6745 3.44602 11.9995C3.44604 11.9996 3.44607 11.9996 3.44609 11.9996L8.45019 17.0076L8.62696 17.1845L8.8038 17.0077L19.5623 6.25046ZM8.29761 12.438L8.29635 12.4367L3.26523 7.39721L3.26507 7.39705C3.08518 7.21719 3.08297 6.92124 3.26586 6.73476L5.29998 4.70088L5.29999 4.70089L5.30139 4.69946C5.48196 4.516 5.77968 4.516 5.96025 4.69946L5.96025 4.69947L5.9615 4.70072L8.45011 7.19352L8.62687 7.37058L8.8038 7.19368L15.6093 0.389012L15.6093 0.389018L15.6107 0.387593C15.7913 0.204136 16.089 0.204136 16.2696 0.387597L16.2708 0.388817L18.3012 2.42348L18.3014 2.42368C18.4813 2.60355 18.4835 2.89952 18.3006 3.08601C18.3004 3.08621 18.3002 3.08641 18.3 3.08661L8.95779 12.4366L8.95778 12.4366L8.95646 12.438C8.7759 12.6214 8.47817 12.6214 8.29761 12.438Z" fill="#4C4C4C" stroke="white" stroke-width="0.5"/>
</svg>
