<svg width="20" height="20" viewBox="0 0 20 20" fill="none" xmlns="http://www.w3.org/2000/svg">
<g id="arrow button">
<path id="Vector" d="M10 20C4.47581 20 -2.38419e-06 15.5242 -2.38419e-06 10C-2.38419e-06 4.47581 4.47581 -2.38419e-06 10 -2.38419e-06C15.5242 -2.38419e-06 20 4.47581 20 10C20 15.5242 15.5242 20 10 20ZM14.6774 8.22581H10L10 5.36693C10 4.93548 9.47581 4.71774 9.17339 5.02419L4.56452 9.65726C4.375 9.84677 4.375 10.1492 4.56452 10.3387L9.17339 14.9758C9.47984 15.2823 10 15.0645 10 14.6331V11.7742H14.6774C14.9435 11.7742 15.1613 11.5565 15.1613 11.2903L15.1613 8.70968C15.1613 8.44355 14.9435 8.22581 14.6774 8.22581Z" fill="#D9D9D9"/>
</g>
</svg>
