<svg xmlns="http://www.w3.org/2000/svg" viewBox="14 10 18 14" width="24" height="24">
  <path d="M22.5001 16.5715C20.1737 16.5715 16.8752 20.1337 16.8752 22.3823C16.8752 23.395 17.6606 24 18.9769 24C20.4078 24 21.3526 23.2722 22.5001 23.2722C23.6577 23.2722 24.6051 24 26.0234 24C27.3396 24 28.1251 23.395 28.1251 22.3823C28.1251 20.1337 24.8266 16.5715 22.5001 16.5715ZM18.1853 16.2056C17.8807 15.2002 16.942 14.549 16.0889 14.751C15.2358 14.953 14.7913 15.9317 15.096 16.9372C15.4007 17.9426 16.3394 18.5938 17.1925 18.3918C18.0456 18.1898 18.49 17.2111 18.1853 16.2056ZM20.6674 15.6027C21.5738 15.3665 22.0273 14.1535 21.6804 12.8936C21.3336 11.6337 20.3176 10.804 19.4111 11.0402C18.5047 11.2765 18.0512 12.4894 18.398 13.7493C18.7449 15.0092 19.7612 15.8391 20.6674 15.6027ZM28.9111 14.7513C28.058 14.5493 27.1196 15.2005 26.8147 16.2059C26.51 17.2114 26.9544 18.1901 27.8075 18.3921C28.6606 18.5941 29.599 17.9429 29.904 16.9375C30.2087 15.932 29.7642 14.9532 28.9111 14.7513ZM24.3329 15.6027C25.2394 15.8389 26.2554 15.0092 26.6023 13.7493C26.9491 12.4894 26.4956 11.2767 25.5892 11.0402C24.6827 10.8038 23.6667 11.6337 23.3199 12.8936C22.973 14.1535 23.4265 15.3665 24.3329 15.6027Z" fill="#004F82"></path>
</svg>
