<svg width="30" height="30" viewBox="0 0 30 30" fill="none" xmlns="http://www.w3.org/2000/svg">
<rect width="30" height="30" rx="5" fill="#F0C1E1"/>
<path d="M20.8929 22.5H9.10714C8.21953 22.5 7.5 21.7805 7.5 20.8929V9.10714C7.5 8.21953 8.21953 7.5 9.10714 7.5H20.8929C21.7805 7.5 22.5 8.21953 22.5 9.10714V20.8929C22.5 21.7805 21.7805 22.5 20.8929 22.5ZM14.0395 19.2168L20.2002 13.0561C20.4094 12.8469 20.4094 12.5077 20.2002 12.2985L19.4426 11.5409C19.2334 11.3317 18.8942 11.3316 18.685 11.5409L13.6607 16.5651L11.315 14.2194C11.1058 14.0102 10.7666 14.0102 10.5574 14.2194L9.79975 14.977C9.59056 15.1862 9.59056 15.5254 9.79975 15.7346L13.2819 19.2167C13.4911 19.426 13.8303 19.426 14.0395 19.2168Z" fill="black"/>
</svg>
