<svg width="30" height="30" viewBox="0 0 30 30" fill="none" xmlns="http://www.w3.org/2000/svg">
<rect width="30" height="30" rx="5" fill="#BFECFF"/>
<path d="M21.0938 10.8H18.75V9.4C18.75 8.62708 18.1201 8 17.3438 8H12.6562C11.8799 8 11.25 8.62708 11.25 9.4V10.8H8.90625C8.12988 10.8 7.5 11.4271 7.5 12.2V20.6C7.5 21.3729 8.12988 22 8.90625 22H21.0938C21.8701 22 22.5 21.3729 22.5 20.6V12.2C22.5 11.4271 21.8701 10.8 21.0938 10.8ZM13.125 9.86667H16.875V10.8H13.125V9.86667ZM17.8125 17.1C17.8125 17.2283 17.707 17.3333 17.5781 17.3333H15.9375V18.9667C15.9375 19.095 15.832 19.2 15.7031 19.2H14.2969C14.168 19.2 14.0625 19.095 14.0625 18.9667V17.3333H12.4219C12.293 17.3333 12.1875 17.2283 12.1875 17.1V15.7C12.1875 15.5717 12.293 15.4667 12.4219 15.4667H14.0625V13.8333C14.0625 13.705 14.168 13.6 14.2969 13.6H15.7031C15.832 13.6 15.9375 13.705 15.9375 13.8333V15.4667H17.5781C17.707 15.4667 17.8125 15.5717 17.8125 15.7V17.1Z" fill="black"/>
</svg>
