<svg width="30" height="30" viewBox="0 0 30 30" fill="none" xmlns="http://www.w3.org/2000/svg">
<rect width="30" height="30" rx="5" fill="#CDC1FF"/>
<path d="M13.4035 12.6223L15.0352 14.2573C15.126 14.3481 15.126 14.4975 15.0352 14.5883L14.7041 14.9194C14.6133 15.0103 14.4639 15.0103 14.3731 14.9194L12.7414 13.2845L11.4144 14.6118L13.049 16.2467C13.1398 16.3375 13.1398 16.487 13.049 16.5778L12.718 16.9089C12.6272 16.9997 12.4778 16.9997 12.387 16.9089L10.7524 15.271L9.97901 16.0445C9.47222 16.5514 9.22908 17.2488 9.30524 17.9607L9.51323 19.8242L7.56811 21.7697C7.4773 21.8605 7.4773 22.01 7.56811 22.1008L7.89913 22.4319C7.98994 22.5227 8.13934 22.5227 8.23015 22.4319L10.1723 20.4893L12.0354 20.6973C12.7356 20.7735 13.4386 20.5391 13.9513 20.0234L19.2799 14.6938L15.3047 10.7178L13.4035 12.6223ZM22.4319 9.88866L20.1118 7.56812C20.021 7.47729 19.8716 7.47729 19.7808 7.56812L19.4498 7.89921C19.3589 7.99004 19.3589 8.13947 19.4498 8.2303L20.2788 9.05948L18.9518 10.3868L17.2937 8.72839L16.7957 8.2303C16.7049 8.13947 16.5555 8.13947 16.4647 8.2303L15.4716 9.22356C15.3808 9.31439 15.3808 9.46381 15.4716 9.55464L15.9696 10.0527L19.9448 14.0346L20.4428 14.5327C20.5336 14.6235 20.683 14.6235 20.7739 14.5327L21.7669 13.5365C21.8577 13.4456 21.8577 13.2962 21.7669 13.2054L19.6138 11.0519L20.9408 9.72458L21.7698 10.5538C21.8607 10.6446 22.0101 10.6446 22.1009 10.5538L22.4319 10.2227C22.5227 10.1289 22.5227 9.98242 22.4319 9.88866Z" fill="black"/>
</svg>
