<svg width="30" height="30" viewBox="0 0 30 30" fill="none" xmlns="http://www.w3.org/2000/svg">
<rect width="30" height="30" rx="5" fill="#FFD09B"/>
<path d="M22.125 17.25H21.75V14.7164C21.75 14.4187 21.6305 14.1328 21.4195 13.9219L19.0781 11.5805C18.8672 11.3695 18.5813 11.25 18.2836 11.25H17.25V10.125C17.25 9.50391 16.7461 9 16.125 9H10.125C9.50391 9 9 9.50391 9 10.125V11.25H7.6875C7.58437 11.25 7.5 11.3344 7.5 11.4375V11.8125C7.5 11.9156 7.58437 12 7.6875 12H14.0625C14.1656 12 14.25 12.0844 14.25 12.1875V12.5625C14.25 12.6656 14.1656 12.75 14.0625 12.75H8.4375C8.33438 12.75 8.25 12.8344 8.25 12.9375V13.3125C8.25 13.4156 8.33438 13.5 8.4375 13.5H13.3125C13.4156 13.5 13.5 13.5844 13.5 13.6875V14.0625C13.5 14.1656 13.4156 14.25 13.3125 14.25H7.6875C7.58437 14.25 7.5 14.3344 7.5 14.4375V14.8125C7.5 14.9156 7.58437 15 7.6875 15H12.5625C12.6656 15 12.75 15.0844 12.75 15.1875V15.5625C12.75 15.6656 12.6656 15.75 12.5625 15.75H9V18.75C9 19.9922 10.0078 21 11.25 21C12.4922 21 13.5 19.9922 13.5 18.75H16.5C16.5 19.9922 17.5078 21 18.75 21C19.9922 21 21 19.9922 21 18.75H22.125C22.3313 18.75 22.5 18.5813 22.5 18.375V17.625C22.5 17.4187 22.3313 17.25 22.125 17.25ZM11.25 19.875C10.6289 19.875 10.125 19.3711 10.125 18.75C10.125 18.1289 10.6289 17.625 11.25 17.625C11.8711 17.625 12.375 18.1289 12.375 18.75C12.375 19.3711 11.8711 19.875 11.25 19.875ZM18.75 19.875C18.1289 19.875 17.625 19.3711 17.625 18.75C17.625 18.1289 18.1289 17.625 18.75 17.625C19.3711 17.625 19.875 18.1289 19.875 18.75C19.875 19.3711 19.3711 19.875 18.75 19.875ZM20.625 15H17.25V12.375H18.2836L20.625 14.7164V15Z" fill="black"/>
</svg>
