<svg width="33" height="36" viewBox="0 0 33 36" fill="none" xmlns="http://www.w3.org/2000/svg">
<path d="M32.4001 27C30.3987 27 30.1673 24.75 27.0787 24.75C23.9766 24.75 23.7341 27 21.7394 27C19.7612 27 19.4927 24.75 16.4001 24.75C13.34 24.75 13.0274 27 11.0787 27C9.06815 27 8.85 24.75 5.73943 24.75C2.62893 24.75 2.40708 27 0.400146 27V21.375C0.400146 19.5117 1.93586 18 3.82872 18H4.97158V7.875H9.543V18H14.1144V7.875H18.6859V18H23.2573V7.875H27.8287V18H28.9716C30.8644 18 32.4001 19.5117 32.4001 21.375V27ZM32.4001 36H0.400146V29.25C3.497 29.25 3.74065 27 5.73943 27C7.73593 27 7.97179 29.25 11.0787 29.25C14.1389 29.25 14.4514 27 16.4001 27C18.4107 27 18.6288 29.25 21.7394 29.25C24.8364 29.25 25.0799 27 27.0787 27C29.0421 27 29.311 29.25 32.4001 29.25V36ZM7.25729 6.75C5.98943 6.75 4.97158 5.74805 4.97158 4.5C4.97158 2.32031 7.25729 2.88281 7.25729 0C8.11443 0 9.543 2.07422 9.543 3.9375C9.543 5.80078 8.52515 6.75 7.25729 6.75ZM16.4001 6.75C15.1323 6.75 14.1144 5.74805 14.1144 4.5C14.1144 2.32031 16.4001 2.88281 16.4001 0C17.2573 0 18.6859 2.07422 18.6859 3.9375C18.6859 5.80078 17.668 6.75 16.4001 6.75ZM25.543 6.75C24.2751 6.75 23.2573 5.74805 23.2573 4.5C23.2573 2.32031 25.543 2.88281 25.543 0C26.4001 0 27.8287 2.07422 27.8287 3.9375C27.8287 5.80078 26.8109 6.75 25.543 6.75Z" fill="#004D81"/>
</svg>
