<svg width="54" height="51" viewBox="0 0 54 51" fill="none" xmlns="http://www.w3.org/2000/svg">
<path d="M52.3125 6.79987H45.5625L44.8073 5.27943C44.5271 4.71468 44.0962 4.2397 43.5631 3.90773C43.03 3.57576 42.4156 3.3999 41.7888 3.39986H36.1336L33.2564 0.501351C32.1922 -0.569653 30.375 0.188974 30.375 1.70304V17.6236L43.875 22.4803V18.6999H47.25C50.9783 18.6999 54 15.6558 54 11.8999V8.49987C54 7.56062 53.2448 6.79987 52.3125 6.79987ZM40.5 11.8999C39.5677 11.8999 38.8125 11.1391 38.8125 10.1999C38.8125 9.26063 39.5677 8.49987 40.5 8.49987C41.4323 8.49987 42.1875 9.26063 42.1875 10.1999C42.1875 11.1391 41.4323 11.8999 40.5 11.8999ZM10.125 20.3999C8.26453 20.3999 6.75 18.8742 6.75 16.9999C6.75 15.1225 5.23863 13.5999 3.375 13.5999C1.51137 13.5999 0 15.1225 0 16.9999C0 21.4263 2.82973 25.1652 6.75 26.5731V49.3C6.75 50.2392 7.50516 51 8.4375 51H15.1875C16.1198 51 16.875 50.2392 16.875 49.3V37.4H33.75V49.3C33.75 50.2392 34.5052 51 35.4375 51H42.1875C43.1198 51 43.875 50.2392 43.875 49.3V26.0896L28.06 20.3999H10.125Z" fill="#075985"/>
</svg>
