<svg width="54" height="54" viewBox="0 0 54 54" fill="none" xmlns="http://www.w3.org/2000/svg">
<path d="M54 27C54 41.9117 41.9117 54 27 54C12.0883 54 0 41.9117 0 27C0 12.0883 12.0883 0 27 0C41.9117 0 54 12.0883 54 27ZM10.8 27C10.8 35.947 18.053 43.2 27 43.2C35.947 43.2 43.2 35.947 43.2 27C43.2 18.053 35.947 10.8 27 10.8C18.053 10.8 10.8 18.053 10.8 27Z" fill="#D9D9D9"/>
<mask id="path-2-inside-1_12_262" fill="white">
<path d="M27 0C30.5457 4.22819e-08 34.0567 0.698376 37.3325 2.05525C40.6082 3.41213 43.5847 5.40094 46.0919 7.90812C48.5991 10.4153 50.5879 13.3918 51.9447 16.6676C53.3016 19.9433 54 23.4543 54 27L43.1488 27C43.1488 24.8793 42.7311 22.7794 41.9195 20.8201C41.108 18.8609 39.9185 17.0806 38.4189 15.5811C36.9194 14.0815 35.1391 12.892 33.1799 12.0805C31.2206 11.2689 29.1207 10.8512 27 10.8512V0Z"/>
</mask>
<path d="M27 0C30.5457 4.22819e-08 34.0567 0.698376 37.3325 2.05525C40.6082 3.41213 43.5847 5.40094 46.0919 7.90812C48.5991 10.4153 50.5879 13.3918 51.9447 16.6676C53.3016 19.9433 54 23.4543 54 27L43.1488 27C43.1488 24.8793 42.7311 22.7794 41.9195 20.8201C41.108 18.8609 39.9185 17.0806 38.4189 15.5811C36.9194 14.0815 35.1391 12.892 33.1799 12.0805C31.2206 11.2689 29.1207 10.8512 27 10.8512V0Z" fill="#075985" stroke="#D9D9D9" stroke-width="0.4" mask="url(#path-2-inside-1_12_262)"/>
</svg>
