<svg width="54" height="54" viewBox="0 0 54 54" fill="none" xmlns="http://www.w3.org/2000/svg">
<path d="M38.3424 14.7054L37.2094 15.6214C34.4973 13.2951 31.0018 11.5714 27.1687 11.5714C18.5384 11.5714 11.5714 18.9 11.5714 27.5183C11.5714 28.3138 11.6196 29.0973 11.7402 29.8567C11.4991 23.1067 16.7786 18.1165 22.9018 18.1165C25.8188 18.1165 28.4705 19.2496 30.4473 21.0938L27.4098 23.5527C26.4094 23.4442 25.3848 23.7696 24.6254 24.529C23.2875 25.8549 23.2875 28.0125 24.6254 29.3504C25.9634 30.6763 28.1089 30.6763 29.4469 29.3504C30.2063 28.5911 30.5317 27.5545 30.4232 26.5661L39.4875 15.8625C40.2469 15.079 39.0897 13.946 38.3424 14.7054ZM28.2415 28.1451C27.5665 28.808 26.4817 28.808 25.8067 28.1451C25.1317 27.4701 25.1317 26.3853 25.8067 25.7103C26.4817 25.0353 27.5665 25.0353 28.2415 25.7103C28.9165 26.3853 28.9165 27.4821 28.2415 28.1451ZM27 0C12.1138 0 0 12.1138 0 27C0 41.8862 12.1138 54 27 54C41.8862 54 54 41.8862 54 27C54 12.1138 41.8862 0 27 0ZM27 46.2857C16.3688 46.2857 7.71429 37.6312 7.71429 27C7.71429 16.3688 16.3688 7.71429 27 7.71429C37.6312 7.71429 46.2857 16.3688 46.2857 27C46.2857 37.6312 37.6312 46.2857 27 46.2857Z" fill="#075985"/>
</svg>
