<svg width="49" height="47" viewBox="0 0 49 47" fill="none" xmlns="http://www.w3.org/2000/svg">
<g filter="url(#filter0_d_998_2807)">
<path d="M24.5002 18.2859C21.5534 18.2859 17.3753 22.9441 17.3753 25.8845C17.3753 27.2088 18.3702 28 20.0375 28C21.8499 28 23.0466 27.0483 24.5002 27.0483C25.9664 27.0483 27.1665 28 28.9629 28C30.6302 28 31.6251 27.2088 31.6251 25.8845C31.6251 22.9441 27.447 18.2859 24.5002 18.2859ZM19.0348 17.8074C18.6488 16.4925 17.4599 15.641 16.3793 15.9051C15.2986 16.1692 14.7357 17.4492 15.1216 18.764C15.5076 20.0788 16.6965 20.9303 17.7772 20.6662C18.8578 20.4021 19.4207 19.1222 19.0348 17.8074ZM22.1786 17.0189C23.3268 16.71 23.9012 15.1238 23.4619 13.4762C23.0225 11.8286 21.7356 10.7438 20.5874 11.0526C19.4393 11.3615 18.8648 12.9476 19.3042 14.5953C19.7436 16.2429 21.0309 17.3281 22.1786 17.0189ZM32.6207 15.9055C31.5401 15.6414 30.3515 16.4929 29.9652 17.8077C29.5793 19.1226 30.1422 20.4025 31.2228 20.6666C32.3035 20.9307 33.4921 20.0792 33.8784 18.7644C34.2643 17.4495 33.7014 16.1696 32.6207 15.9055ZM26.8217 17.0189C27.9699 17.3277 29.2568 16.2429 29.6962 14.5953C30.1356 12.9476 29.5611 11.3619 28.413 11.0526C27.2648 10.7434 25.9779 11.8286 25.5385 13.4762C25.0991 15.1238 25.6736 16.71 26.8217 17.0189Z" fill="#004F82"/>
</g>
<defs>
<filter id="filter0_d_998_2807" x="0" y="0" width="49" height="47" filterUnits="userSpaceOnUse" color-interpolation-filters="sRGB">
<feFlood flood-opacity="0" result="BackgroundImageFix"/>
<feColorMatrix in="SourceAlpha" type="matrix" values="0 0 0 0 0 0 0 0 0 0 0 0 0 0 0 0 0 0 127 0" result="hardAlpha"/>
<feOffset dy="4"/>
<feGaussianBlur stdDeviation="7.5"/>
<feComposite in2="hardAlpha" operator="out"/>
<feColorMatrix type="matrix" values="0 0 0 0 0 0 0 0 0 0 0 0 0 0 0 0 0 0 0.1 0"/>
<feBlend mode="normal" in2="BackgroundImageFix" result="effect1_dropShadow_998_2807"/>
<feBlend mode="normal" in="SourceGraphic" in2="effect1_dropShadow_998_2807" result="shape"/>
</filter>
</defs>
</svg>
