<svg width="18" height="46" viewBox="0 0 18 46" fill="none" xmlns="http://www.w3.org/2000/svg">
<path d="M8.7027 0C11.9069 0 14.5045 2.57438 14.5045 5.75C14.5045 8.92562 11.9069 11.5 8.7027 11.5C5.49848 11.5 2.9009 8.92562 2.9009 5.75C2.9009 2.57438 5.49848 0 8.7027 0ZM13.0541 12.9375H12.0242C9.96541 13.8757 7.52874 13.9163 5.38117 12.9375H4.35135C1.94814 12.9375 0 14.8682 0 17.25V29.4688C0 30.6596 0.974068 31.625 2.17568 31.625H3.62613V43.8438C3.62613 45.0346 4.60019 46 5.8018 46H11.6036C12.8052 46 13.7793 45.0346 13.7793 43.8438V31.625H15.2297C16.4313 31.625 17.4054 30.6596 17.4054 29.4688V17.25C17.4054 14.8682 15.4573 12.9375 13.0541 12.9375Z" fill="#004D81"/>
</svg>
