<svg width="41" height="38" viewBox="0 0 41 38" fill="none" xmlns="http://www.w3.org/2000/svg">
<g filter="url(#filter0_d_169_1010)">
<path d="M33.9062 6H28.75V3C28.75 1.34375 27.3643 0 25.6562 0H15.3438C13.6357 0 12.25 1.34375 12.25 3V6H7.09375C5.38574 6 4 7.34375 4 9V27C4 28.6562 5.38574 30 7.09375 30H33.9062C35.6143 30 37 28.6562 37 27V9C37 7.34375 35.6143 6 33.9062 6ZM16.375 4H24.625V6H16.375V4ZM26.6875 19.5C26.6875 19.775 26.4555 20 26.1719 20H22.5625V23.5C22.5625 23.775 22.3305 24 22.0469 24H18.9531C18.6695 24 18.4375 23.775 18.4375 23.5V20H14.8281C14.5445 20 14.3125 19.775 14.3125 19.5V16.5C14.3125 16.225 14.5445 16 14.8281 16H18.4375V12.5C18.4375 12.225 18.6695 12 18.9531 12H22.0469C22.3305 12 22.5625 12.225 22.5625 12.5V16H26.1719C26.4555 16 26.6875 16.225 26.6875 16.5V19.5Z" fill="#004D81"/>
</g>
<defs>
<filter id="filter0_d_169_1010" x="0" y="0" width="41" height="38" filterUnits="userSpaceOnUse" color-interpolation-filters="sRGB">
<feFlood flood-opacity="0" result="BackgroundImageFix"/>
<feColorMatrix in="SourceAlpha" type="matrix" values="0 0 0 0 0 0 0 0 0 0 0 0 0 0 0 0 0 0 127 0" result="hardAlpha"/>
<feOffset dy="4"/>
<feGaussianBlur stdDeviation="2"/>
<feComposite in2="hardAlpha" operator="out"/>
<feColorMatrix type="matrix" values="0 0 0 0 0 0 0 0 0 0 0 0 0 0 0 0 0 0 0.25 0"/>
<feBlend mode="normal" in2="BackgroundImageFix" result="effect1_dropShadow_169_1010"/>
<feBlend mode="normal" in="SourceGraphic" in2="effect1_dropShadow_169_1010" result="shape"/>
</filter>
</defs>
</svg>
