<svg width="33" height="30" viewBox="0 0 33 30" fill="none" xmlns="http://www.w3.org/2000/svg">
<path d="M29.9062 6H24.75V3C24.75 1.34375 23.3643 0 21.6562 0H11.3438C9.63574 0 8.25 1.34375 8.25 3V6H3.09375C1.38574 6 0 7.34375 0 9V27C0 28.6562 1.38574 30 3.09375 30H29.9062C31.6143 30 33 28.6562 33 27V9C33 7.34375 31.6143 6 29.9062 6ZM12.375 4H20.625V6H12.375V4ZM22.6875 19.5C22.6875 19.775 22.4555 20 22.1719 20H18.5625V23.5C18.5625 23.775 18.3305 24 18.0469 24H14.9531C14.6695 24 14.4375 23.775 14.4375 23.5V20H10.8281C10.5445 20 10.3125 19.775 10.3125 19.5V16.5C10.3125 16.225 10.5445 16 10.8281 16H14.4375V12.5C14.4375 12.225 14.6695 12 14.9531 12H18.0469C18.3305 12 18.5625 12.225 18.5625 12.5V16H22.1719C22.4555 16 22.6875 16.225 22.6875 16.5V19.5Z" fill="#004D81"/>
</svg>
