<svg width="15" height="18" viewBox="0 0 15 18" fill="none" xmlns="http://www.w3.org/2000/svg">
<path d="M8.75 5.01562V0.5H0.9375C0.417969 0.5 0 0.855273 0 1.29688V16.7031C0 17.1447 0.417969 17.5 0.9375 17.5H14.0625C14.582 17.5 15 17.1447 15 16.7031V5.8125H9.6875C9.17188 5.8125 8.75 5.45391 8.75 5.01562ZM11.25 12.8516C11.25 13.0707 11.0391 13.25 10.7812 13.25H4.21875C3.96094 13.25 3.75 13.0707 3.75 12.8516V12.5859C3.75 12.3668 3.96094 12.1875 4.21875 12.1875H10.7812C11.0391 12.1875 11.25 12.3668 11.25 12.5859V12.8516ZM11.25 10.7266C11.25 10.9457 11.0391 11.125 10.7812 11.125H4.21875C3.96094 11.125 3.75 10.9457 3.75 10.7266V10.4609C3.75 10.2418 3.96094 10.0625 4.21875 10.0625H10.7812C11.0391 10.0625 11.25 10.2418 11.25 10.4609V10.7266ZM11.25 8.33594V8.60156C11.25 8.8207 11.0391 9 10.7812 9H4.21875C3.96094 9 3.75 8.8207 3.75 8.60156V8.33594C3.75 8.1168 3.96094 7.9375 4.21875 7.9375H10.7812C11.0391 7.9375 11.25 8.1168 11.25 8.33594ZM15 4.54746V4.75H10V0.5H10.2383C10.4883 0.5 10.7266 0.583008 10.9023 0.732422L14.7266 3.98633C14.9023 4.13574 15 4.33828 15 4.54746Z" fill="#004D81"/>
</svg>
