<svg width="18" height="15" viewBox="0 0 18 15" fill="none" xmlns="http://www.w3.org/2000/svg">
<path d="M17.1 -0.5H0.9C0.403031 -0.5 0 -0.0202009 0 0.571429V13.4286C0 14.0202 0.403031 14.5 0.9 14.5H17.1C17.597 14.5 18 14.0202 18 13.4286V0.571429C18 -0.0202009 17.597 -0.5 17.1 -0.5ZM4.95 9.4067V9.94643C4.95 10.0944 4.84931 10.2143 4.725 10.2143H4.275C4.15069 10.2143 4.05 10.0944 4.05 9.94643V9.401C3.73247 9.38158 3.42366 9.24966 3.16772 9.02098C3.05803 8.92288 3.05241 8.72734 3.15169 8.61451L3.48216 8.23917C3.56006 8.15078 3.67594 8.14676 3.76706 8.21473C3.87591 8.29576 3.99937 8.33929 4.12762 8.33929H4.91822C5.10103 8.33929 5.25009 8.14107 5.25009 7.89766C5.25009 7.69844 5.14856 7.52299 5.00344 7.47143L3.73781 7.01942C3.21497 6.83259 2.84962 6.23527 2.84962 5.56663C2.84962 4.74565 3.38541 4.07868 4.04972 4.05759V3.51786C4.04972 3.36987 4.15041 3.25 4.27472 3.25H4.72472C4.84903 3.25 4.94972 3.36987 4.94972 3.51786V4.06328C5.26725 4.0827 5.57606 4.21429 5.832 4.4433C5.94169 4.54141 5.94731 4.73694 5.84803 4.84978L5.51756 5.22511C5.43966 5.3135 5.32378 5.31752 5.23266 5.24955C5.12381 5.16819 5.00034 5.125 4.87209 5.125H4.0815C3.89869 5.125 3.74963 5.32321 3.74963 5.56663C3.74963 5.76585 3.85116 5.94129 3.99628 5.99286L5.26191 6.44487C5.78475 6.6317 6.15009 7.22902 6.15009 7.89766C6.15009 8.71897 5.61431 9.3856 4.95 9.4067ZM11.7 8.875C11.7 9.02299 11.5993 9.14286 11.475 9.14286H8.325C8.20069 9.14286 8.1 9.02299 8.1 8.875V8.33929C8.1 8.19129 8.20069 8.07143 8.325 8.07143H11.475C11.5993 8.07143 11.7 8.19129 11.7 8.33929V8.875ZM16.2 8.875C16.2 9.02299 16.0993 9.14286 15.975 9.14286H13.725C13.6007 9.14286 13.5 9.02299 13.5 8.875V8.33929C13.5 8.19129 13.6007 8.07143 13.725 8.07143H15.975C16.0993 8.07143 16.2 8.19129 16.2 8.33929V8.875ZM16.2 5.66071C16.2 5.80871 16.0993 5.92857 15.975 5.92857H8.325C8.20069 5.92857 8.1 5.80871 8.1 5.66071V5.125C8.1 4.97701 8.20069 4.85714 8.325 4.85714H15.975C16.0993 4.85714 16.2 4.97701 16.2 5.125V5.66071Z" fill="#004D81"/>
</svg>
