<svg width="24" height="19" viewBox="0 0 24 19" fill="none" xmlns="http://www.w3.org/2000/svg">
<path d="M23.1376 11.3703L17.6751 3.42679C16.7459 2.07812 15.2667 1.35714 13.7667 1.35714C12.8251 1.35714 11.8709 1.64129 11.0375 2.23504C10.2167 2.82031 9.63337 3.62612 9.30837 4.51674C9.18754 2.00179 7.1667 0 4.66669 0C2.08751 0 0 2.12478 0 4.75V14.25C0 16.8752 2.08751 19 4.66669 19C7.24586 19 9.33337 16.8752 9.33337 14.25V7.92656C9.47087 8.29129 9.63754 8.65178 9.86671 8.98683L15.3334 16.9304C16.2584 18.279 17.7376 19 19.2417 19C20.1876 19 21.1376 18.7158 21.9709 18.1221C24.1251 16.5868 24.6459 13.5629 23.1376 11.3703ZM6.66669 9.5H2.66668V4.75C2.66668 3.62612 3.56251 2.71429 4.66669 2.71429C5.77086 2.71429 6.66669 3.62612 6.66669 4.75V9.5ZM14.7834 11.4042L12.0501 7.43036C11.7292 6.96384 11.6042 6.39554 11.7042 5.83571C11.8 5.27589 12.1084 4.78393 12.5667 4.45737C12.9209 4.2029 13.3376 4.07143 13.7667 4.07143C14.4542 4.07143 15.0959 4.41071 15.4876 4.98326L18.2209 8.95714L14.7834 11.4042Z" fill="black"/>
</svg>
