<svg width="14" height="17" viewBox="0 0 14 17" fill="none" xmlns="http://www.w3.org/2000/svg">
<path d="M13.625 5.5H0.375C0.167906 5.5 0 5.33209 0 5.125V4C0 3.17156 0.671562 2.5 1.5 2.5H3V0.875C3 0.667906 3.16791 0.5 3.375 0.5H4.625C4.83209 0.5 5 0.667906 5 0.875V2.5H9V0.875C9 0.667906 9.16791 0.5 9.375 0.5H10.625C10.8321 0.5 11 0.667906 11 0.875V2.5H12.5C13.3284 2.5 14 3.17156 14 4V5.125C14 5.33209 13.8321 5.5 13.625 5.5ZM0.375 6.5H13.625C13.8321 6.5 14 6.66791 14 6.875V15C14 15.8284 13.3284 16.5 12.5 16.5H1.5C0.671562 16.5 0 15.8284 0 15V6.875C0 6.66791 0.167906 6.5 0.375 6.5ZM10.7905 9.49834L9.91022 8.61091C9.76438 8.46388 9.52694 8.46291 9.37991 8.60878L6.06625 11.8958L4.62937 10.4473C4.48353 10.3003 4.24606 10.2993 4.09903 10.4452L3.21163 11.3255C3.06459 11.4713 3.06363 11.7088 3.2095 11.8558L5.79078 14.4579C5.93662 14.605 6.17406 14.6059 6.32109 14.4601L10.7884 10.0287C10.9354 9.88281 10.9364 9.64537 10.7905 9.49834Z" fill="#4C4C4C"/>
</svg>
