<svg width="19" height="19" viewBox="0 0 19 19" fill="none" xmlns="http://www.w3.org/2000/svg">
<path d="M7.47774 6.48828L9.54453 8.55919C9.65955 8.67424 9.65955 8.86351 9.54453 8.97856L9.12523 9.39794C9.0102 9.51299 8.82096 9.51299 8.70594 9.39794L6.63915 7.32703L4.95826 9.00825L7.02876 11.0792C7.14378 11.1942 7.14378 11.3835 7.02876 11.4985L6.60946 11.9179C6.49443 12.033 6.30519 12.033 6.19017 11.9179L4.11967 9.8433L3.14007 10.8231C2.49814 11.4651 2.19017 12.3484 2.28664 13.2503L2.55009 15.6107L0.0862709 18.075C-0.028757 18.19 -0.028757 18.3793 0.0862709 18.4943L0.505566 18.9137C0.620594 19.0288 0.809833 19.0288 0.924861 18.9137L3.38497 16.4531L5.7449 16.7166C6.63173 16.8131 7.52226 16.5162 8.17161 15.863L14.9211 9.11217L9.8859 4.07594L7.47774 6.48828ZM18.9137 3.02564L15.975 0.0862877C15.8599 -0.0287626 15.6707 -0.0287626 15.5557 0.0862877L15.1364 0.505665C15.0213 0.620715 15.0213 0.809991 15.1364 0.925041L16.1865 1.97534L14.5056 3.65656L12.4054 1.55596L11.7746 0.925041C11.6596 0.809991 11.4703 0.809991 11.3553 0.925041L10.0974 2.18317C9.98237 2.29822 9.98237 2.4875 10.0974 2.60255L10.7282 3.23347L15.7634 8.27713L16.3942 8.90805C16.5093 9.0231 16.6985 9.0231 16.8135 8.90805L18.0714 7.64621C18.1865 7.53116 18.1865 7.34188 18.0714 7.22683L15.3442 4.49902L17.025 2.8178L18.0751 3.8681C18.1902 3.98315 18.3794 3.98315 18.4944 3.8681L18.9137 3.44873C19.0288 3.32996 19.0288 3.1444 18.9137 3.02564Z" fill="black"/>
</svg>
