<svg width="19" height="15" viewBox="0 0 19 15" fill="none" xmlns="http://www.w3.org/2000/svg">
<path d="M18.4062 12.1667H2.375V1.08333C2.375 0.761042 2.1093 0.5 1.78125 0.5H0.59375C0.265703 0.5 0 0.761042 0 1.08333V13.3333C0 13.9776 0.531777 14.5 1.1875 14.5H18.4062C18.7343 14.5 19 14.239 19 13.9167V12.75C19 12.4277 18.7343 12.1667 18.4062 12.1667ZM17.2188 1.66667H12.8376C12.0442 1.66667 11.6468 2.60911 12.2079 3.16036L13.4102 4.34161L10.6875 7.01693L7.96479 4.34198C7.50092 3.88625 6.74908 3.88625 6.28559 4.34198L3.73654 6.8463C3.50461 7.07417 3.50461 7.44349 3.73654 7.67135L4.57596 8.49604C4.80789 8.72391 5.18381 8.72391 5.41574 8.49604L7.125 6.81641L9.84771 9.49135C10.3116 9.94708 11.0634 9.94708 11.5269 9.49135L15.0894 5.99135L16.2918 7.1726C16.8529 7.72385 17.8121 7.33339 17.8121 6.55391V2.25C17.8125 1.92771 17.5468 1.66667 17.2188 1.66667Z" fill="#4C4C4C"/>
</svg>
