<svg width="16" height="11" viewBox="0 0 16 11" fill="none" xmlns="http://www.w3.org/2000/svg">
<path d="M15.9082 6.53391L13.8964 10.0904C13.7398 10.3672 13.5157 10.5968 13.2462 10.7564C12.9768 10.916 12.6715 11 12.3608 11H1.25069C0.736167 11 0.415583 10.4244 0.674833 9.96609L2.68661 6.40956C2.84317 6.13279 3.06734 5.90316 3.33678 5.74357C3.60622 5.58398 3.91151 5.5 4.22222 5.5H15.3323C15.8469 5.5 16.1674 6.07558 15.9082 6.53391ZM4.22222 4.58333H13.3333V3.20833C13.3333 2.44893 12.7364 1.83333 12 1.83333H7.55556L5.77778 0H1.33333C0.596945 0 0 0.615599 0 1.375V9.33986L1.91881 5.94768C2.39483 5.10612 3.27747 4.58333 4.22222 4.58333Z" fill="white"/>
</svg>
