<svg width="15" height="11" viewBox="0 0 15 11" fill="none" xmlns="http://www.w3.org/2000/svg">
<path d="M14.5312 9.16667H1.875V0.458333C1.875 0.205104 1.66523 0 1.40625 0H0.46875C0.209766 0 0 0.205104 0 0.458333V10.0833C0 10.5895 0.419824 11 0.9375 11H14.5312C14.7902 11 15 10.7949 15 10.5417V9.625C15 9.37177 14.7902 9.16667 14.5312 9.16667ZM13.5938 0.916667H10.135C9.50859 0.916667 9.19482 1.65716 9.63779 2.09029L10.587 3.01841L8.4375 5.12044L6.28799 3.0187C5.92178 2.66063 5.32822 2.66063 4.96231 3.0187L2.9499 4.98638C2.7668 5.16542 2.7668 5.4556 2.9499 5.63464L3.6126 6.2826C3.7957 6.46164 4.09248 6.46164 4.27559 6.2826L5.625 4.96289L7.77451 7.06464C8.14072 7.42271 8.73428 7.42271 9.10019 7.06464L11.9127 4.31464L12.8619 5.24276C13.3049 5.67589 14.0622 5.36909 14.0622 4.75664V1.375C14.0625 1.12177 13.8527 0.916667 13.5938 0.916667Z" fill="white"/>
</svg>
