<svg width="25" height="25" viewBox="0 0 25 25" fill="none" xmlns="http://www.w3.org/2000/svg">
<g filter="url(#filter0_d_518_277)">
<path d="M11.1719 0H13.8281C14.2697 0 14.625 0.355273 14.625 0.796875V6.375H17.5369C18.1279 6.375 18.4234 7.08887 18.0051 7.50723L12.9549 12.5607C12.7059 12.8098 12.2975 12.8098 12.0484 12.5607L6.9916 7.50723C6.57324 7.08887 6.86875 6.375 7.45977 6.375H10.375V0.796875C10.375 0.355273 10.7303 0 11.1719 0ZM21 12.4844V16.2031C21 16.6447 20.6447 17 20.2031 17H4.79688C4.35527 17 4 16.6447 4 16.2031V12.4844C4 12.0428 4.35527 11.6875 4.79688 11.6875H9.66777L11.2947 13.3145C11.9621 13.9818 13.0379 13.9818 13.7053 13.3145L15.3322 11.6875H20.2031C20.6447 11.6875 21 12.0428 21 12.4844ZM16.8828 15.4062C16.8828 15.041 16.584 14.7422 16.2188 14.7422C15.8535 14.7422 15.5547 15.041 15.5547 15.4062C15.5547 15.7715 15.8535 16.0703 16.2188 16.0703C16.584 16.0703 16.8828 15.7715 16.8828 15.4062ZM19.0078 15.4062C19.0078 15.041 18.709 14.7422 18.3438 14.7422C17.9785 14.7422 17.6797 15.041 17.6797 15.4062C17.6797 15.7715 17.9785 16.0703 18.3438 16.0703C18.709 16.0703 19.0078 15.7715 19.0078 15.4062Z" fill="#4C4C4C"/>
</g>
<defs>
<filter id="filter0_d_518_277" x="0" y="0" width="25" height="25" filterUnits="userSpaceOnUse" color-interpolation-filters="sRGB">
<feFlood flood-opacity="0" result="BackgroundImageFix"/>
<feColorMatrix in="SourceAlpha" type="matrix" values="0 0 0 0 0 0 0 0 0 0 0 0 0 0 0 0 0 0 127 0" result="hardAlpha"/>
<feOffset dy="4"/>
<feGaussianBlur stdDeviation="2"/>
<feComposite in2="hardAlpha" operator="out"/>
<feColorMatrix type="matrix" values="0 0 0 0 0 0 0 0 0 0 0 0 0 0 0 0 0 0 0.25 0"/>
<feBlend mode="normal" in2="BackgroundImageFix" result="effect1_dropShadow_518_277"/>
<feBlend mode="normal" in="SourceGraphic" in2="effect1_dropShadow_518_277" result="shape"/>
</filter>
</defs>
</svg>
