<svg width="17" height="17" viewBox="0 0 17 17" fill="none" xmlns="http://www.w3.org/2000/svg">
<path d="M7.17188 0H9.82812C10.2697 0 10.625 0.355273 10.625 0.796875V6.375H13.5369C14.1279 6.375 14.4234 7.08887 14.0051 7.50723L8.95488 12.5607C8.70586 12.8098 8.29746 12.8098 8.04844 12.5607L2.9916 7.50723C2.57324 7.08887 2.86875 6.375 3.45977 6.375H6.375V0.796875C6.375 0.355273 6.73027 0 7.17188 0ZM17 12.4844V16.2031C17 16.6447 16.6447 17 16.2031 17H0.796875C0.355273 17 0 16.6447 0 16.2031V12.4844C0 12.0428 0.355273 11.6875 0.796875 11.6875H5.66777L7.29473 13.3145C7.96211 13.9818 9.03789 13.9818 9.70527 13.3145L11.3322 11.6875H16.2031C16.6447 11.6875 17 12.0428 17 12.4844ZM12.8828 15.4062C12.8828 15.041 12.584 14.7422 12.2188 14.7422C11.8535 14.7422 11.5547 15.041 11.5547 15.4062C11.5547 15.7715 11.8535 16.0703 12.2188 16.0703C12.584 16.0703 12.8828 15.7715 12.8828 15.4062ZM15.0078 15.4062C15.0078 15.041 14.709 14.7422 14.3438 14.7422C13.9785 14.7422 13.6797 15.041 13.6797 15.4062C13.6797 15.7715 13.9785 16.0703 14.3438 16.0703C14.709 16.0703 15.0078 15.7715 15.0078 15.4062Z" fill="#4C4C4C"/>
</svg>
