<svg width="11" height="16" viewBox="0 0 11 16" fill="none" xmlns="http://www.w3.org/2000/svg">
<path d="M1.79688 0.698242C2.02847 0.466647 2.38147 0.43937 2.63867 0.610352L2.74316 0.696289L2.74414 0.698242L9.38477 7.33887L9.38672 7.33984C9.61979 7.57046 9.64925 7.92432 9.47656 8.18555L9.38965 8.29102L2.74902 14.9316C2.51743 15.1632 2.16443 15.1905 1.90723 15.0195L1.80273 14.9336L1.80176 14.9316L0.698242 13.8281C0.466647 13.5965 0.439371 13.2435 0.610352 12.9863L0.696289 12.8818L0.698242 12.8809L5.75879 7.82031L5.40527 7.46582L0.698242 2.75879C0.466647 2.52719 0.43937 2.17419 0.610352 1.91699L0.696289 1.8125L0.700195 1.80859L1.7959 0.697266L1.79688 0.698242Z" fill="#919191" stroke="white"/>
</svg>
