<svg width="18" height="15" viewBox="0 0 18 15" fill="none" xmlns="http://www.w3.org/2000/svg">
<path d="M17.3532 8.87813L13.2563 3.025C12.5594 2.03125 11.45 1.5 10.325 1.5C9.61879 1.5 8.90316 1.70937 8.27816 2.14687C7.66253 2.57812 7.22503 3.17188 6.98128 3.82812C6.89065 1.975 5.37502 0.5 3.50001 0.5C1.56563 0.5 0 2.06562 0 4V11C0 12.9344 1.56563 14.5 3.50001 14.5C5.4344 14.5 7.00003 12.9344 7.00003 11V6.34062C7.10315 6.60938 7.22816 6.875 7.40003 7.12187L11.5 12.975C12.1938 13.9688 13.3032 14.5 14.4313 14.5C15.1407 14.5 15.8532 14.2906 16.4782 13.8531C18.0938 12.7219 18.4845 10.4938 17.3532 8.87813ZM5.00002 7.5H2.00001V4C2.00001 3.17188 2.67189 2.5 3.50001 2.5C4.32814 2.5 5.00002 3.17188 5.00002 4V7.5ZM11.0875 8.90312L9.03754 5.975C8.79691 5.63125 8.70316 5.2125 8.77816 4.8C8.85004 4.3875 9.08129 4.025 9.42504 3.78438C9.69067 3.59688 10.0032 3.5 10.325 3.5C10.8407 3.5 11.3219 3.75 11.6157 4.17188L13.6657 7.1L11.0875 8.90312Z" fill="white"/>
</svg>
