<svg width="15" height="15" viewBox="0 0 15 15" fill="none" xmlns="http://www.w3.org/2000/svg">
<path d="M5.90348 5.12233L7.53515 6.75725C7.62596 6.84808 7.62596 6.99751 7.53515 7.08834L7.20413 7.41943C7.11332 7.51025 6.96392 7.51025 6.87311 7.41943L5.24143 5.7845L3.91441 7.11178L5.54902 8.7467C5.63983 8.83753 5.63983 8.98696 5.54902 9.07779L5.218 9.40888C5.12718 9.49971 4.97779 9.49971 4.88697 9.40888L3.25237 7.77102L2.47901 8.54454C1.97222 9.05142 1.72908 9.74876 1.80524 10.4607L2.01323 12.3242L0.0681086 14.2697C-0.0227029 14.3605 -0.0227029 14.51 0.0681086 14.6008L0.399131 14.9319C0.489942 15.0227 0.639342 15.0227 0.730153 14.9319L2.67235 12.9893L4.53545 13.1973C5.23557 13.2735 5.93863 13.0391 6.45127 12.5234L11.7799 7.19382L7.80466 3.21784L5.90348 5.12233ZM14.9319 2.38866L12.6118 0.0681219C12.521 -0.0227073 12.3716 -0.0227073 12.2808 0.0681219L11.9498 0.399209C11.8589 0.490038 11.8589 0.639467 11.9498 0.730296L12.7788 1.55948L11.4518 2.88676L9.79372 1.22839L9.29572 0.730296C9.20491 0.639467 9.05551 0.639467 8.9647 0.730296L7.97163 1.72356C7.88082 1.81439 7.88082 1.96381 7.97163 2.05464L8.46963 2.55274L12.4448 6.53457L12.9428 7.03267C13.0336 7.1235 13.183 7.1235 13.2739 7.03267L14.2669 6.03648C14.3577 5.94565 14.3577 5.79622 14.2669 5.70539L12.1138 3.55186L13.4408 2.22458L14.2698 3.05377C14.3607 3.14459 14.5101 3.14459 14.6009 3.05377L14.9319 2.72268C15.0227 2.62892 15.0227 2.48242 14.9319 2.38866Z" fill="white"/>
</svg>
