<svg width="22" height="22" viewBox="0 0 22 22" fill="none" xmlns="http://www.w3.org/2000/svg">
<path d="M10.7393 0.698242C10.971 0.466545 11.3248 0.439122 11.582 0.610352L11.6855 0.696289L11.6875 0.698242L21.1797 10.1855C21.4111 10.4172 21.4377 10.7702 21.2666 11.0273L21.1816 11.1318L21.1797 11.1328L11.6875 20.625C11.4558 20.8567 11.102 20.8841 10.8447 20.7129L10.7412 20.627L9.65527 19.541C9.39122 19.2767 9.39484 18.8432 9.66602 18.582L15.5498 12.9766L16.4551 12.1152H1.17188C0.798766 12.1152 0.50026 11.8164 0.5 11.4434V9.88086L0.513672 9.74414C0.576009 9.43703 0.845335 9.20898 1.17188 9.20898H16.4551L15.5498 8.34668L9.66602 2.74121L9.66504 2.74023L9.5752 2.63477C9.4199 2.41099 9.41681 2.11522 9.56641 1.88965L9.65332 1.7832L9.65527 1.78223L10.7393 0.698242Z" fill="#919191" stroke="white"/>
</svg>
