<svg width="17" height="18" viewBox="0 0 17 18" fill="none" xmlns="http://www.w3.org/2000/svg">
<path d="M15.9786 6.03359C16.0848 6.32246 15.9952 6.64453 15.7661 6.85039L14.3284 8.15859C14.3649 8.43418 14.3848 8.71641 14.3848 9.00195C14.3848 9.2875 14.3649 9.56973 14.3284 9.84531L15.7661 11.1535C15.9952 11.3594 16.0848 11.6814 15.9786 11.9703C15.8325 12.3654 15.6565 12.7439 15.454 13.1092L15.2979 13.3781C15.0788 13.7434 14.8331 14.0887 14.5641 14.4141C14.3682 14.6531 14.0429 14.7328 13.7507 14.6398L11.9013 14.0521C11.4563 14.3941 10.9649 14.6797 10.4403 14.8955L10.0253 16.7914C9.95887 17.0936 9.72645 17.3326 9.42098 17.3824C8.96278 17.4588 8.49129 17.4986 8.00985 17.4986C7.5284 17.4986 7.05692 17.4588 6.59871 17.3824C6.29325 17.3326 6.06082 17.0936 5.99442 16.7914L5.57938 14.8955C5.05477 14.6797 4.56336 14.3941 4.11844 14.0521L2.27235 14.6432C1.98016 14.7361 1.65477 14.6531 1.45887 14.4174C1.18993 14.092 0.944222 13.7467 0.725082 13.3814L0.569027 13.1125C0.366488 12.7473 0.190511 12.3687 0.0444177 11.9736C-0.0618323 11.6848 0.0278161 11.3627 0.256918 11.1568L1.69461 9.84863C1.65809 9.56973 1.63817 9.2875 1.63817 9.00195C1.63817 8.71641 1.65809 8.43418 1.69461 8.15859L0.256918 6.85039C0.0278161 6.64453 -0.0618323 6.32246 0.0444177 6.03359C0.190511 5.63848 0.366488 5.25996 0.569027 4.89473L0.725082 4.62578C0.944222 4.26055 1.18993 3.91523 1.45887 3.58984C1.65477 3.35078 1.98016 3.27109 2.27235 3.36406L4.12176 3.95176C4.56668 3.60977 5.05809 3.32422 5.5827 3.1084L5.99774 1.2125C6.06414 0.910352 6.29657 0.671289 6.60203 0.621484C7.06024 0.541797 7.53172 0.501953 8.01317 0.501953C8.49461 0.501953 8.9661 0.541797 9.4243 0.618164C9.72977 0.667969 9.96219 0.907031 10.0286 1.20918L10.4436 3.10508C10.9682 3.3209 11.4597 3.60645 11.9046 3.94844L13.754 3.36074C14.0462 3.26777 14.3716 3.35078 14.5675 3.58652C14.8364 3.91191 15.0821 4.25723 15.3013 4.62246L15.4573 4.89141C15.6598 5.25664 15.8358 5.63516 15.9819 6.03027L15.9786 6.03359ZM8.01317 11.6582C8.71765 11.6582 9.39328 11.3783 9.89142 10.8802C10.3896 10.3821 10.6694 9.70643 10.6694 9.00195C10.6694 8.29747 10.3896 7.62184 9.89142 7.1237C9.39328 6.62556 8.71765 6.3457 8.01317 6.3457C7.30869 6.3457 6.63306 6.62556 6.13492 7.1237C5.63677 7.62184 5.35692 8.29747 5.35692 9.00195C5.35692 9.70643 5.63677 10.3821 6.13492 10.8802C6.63306 11.3783 7.30869 11.6582 8.01317 11.6582Z" fill="#4C4C4C"/>
</svg>
