<svg width="18" height="29" viewBox="0 0 18 29" fill="none" xmlns="http://www.w3.org/2000/svg">
<path id="Vector" d="M15.0529 1.46756L15.0548 1.46946L17.023 3.44634C17.6484 4.07455 17.6457 5.08728 17.0249 5.70422L17.0226 5.70648L8.63605 14.1476L8.28556 14.5004L8.63642 14.8528L17.0317 23.2851C17.6571 23.9133 17.6544 24.9261 17.0336 25.543L17.0309 25.5457L15.0635 27.5305C15.0634 27.5306 15.0633 27.5307 15.0633 27.5308C14.439 28.1575 13.4347 28.1547 12.8218 27.5324L12.8199 27.5305L0.975926 15.6343L0.975931 15.6343L0.974055 15.6324C0.343122 15.0053 0.34313 13.9926 0.967218 13.3657L12.8112 1.46946C13.4354 0.842458 14.4399 0.845205 15.0529 1.46756Z" fill="black" stroke="#F3F3F3"/>
</svg>
