<svg width="54" height="53" viewBox="0 0 54 53" fill="none" xmlns="http://www.w3.org/2000/svg">
<path d="M47.8214 0H6.17857C3.04353 0 0.5 2.54353 0.5 5.67857V47.3214C0.5 50.4565 3.04353 53 6.17857 53H47.8214C50.9565 53 53.5 50.4565 53.5 47.3214V5.67857C53.5 2.54353 50.9565 0 47.8214 0ZM44.0357 29.8125C44.0357 30.5933 43.3969 31.2321 42.6161 31.2321H31.7321V42.1161C31.7321 42.8969 31.0933 43.5357 30.3125 43.5357H23.6875C22.9067 43.5357 22.2679 42.8969 22.2679 42.1161V31.2321H11.3839C10.6031 31.2321 9.96429 30.5933 9.96429 29.8125V23.1875C9.96429 22.4067 10.6031 21.7679 11.3839 21.7679H22.2679V10.8839C22.2679 10.1031 22.9067 9.46429 23.6875 9.46429H30.3125C31.0933 9.46429 31.7321 10.1031 31.7321 10.8839V21.7679H42.6161C43.3969 21.7679 44.0357 22.4067 44.0357 23.1875V29.8125Z" fill="#004D81"/>
</svg>
