<svg width="25" height="21" viewBox="0 0 25 21" fill="none" xmlns="http://www.w3.org/2000/svg">
<path d="M20.8333 17.4444V18.1389C20.8333 19.2895 19.9006 20.2222 18.75 20.2222H2.08333C0.932726 20.2222 0 19.2895 0 18.1389V7.02777C0 5.87716 0.932726 4.94444 2.08333 4.94444H2.77778V13.9722C2.77778 15.8868 4.33542 17.4444 6.25 17.4444H20.8333ZM25 13.9722V2.8611C25 1.7105 24.0673 0.777771 22.9167 0.777771H6.25C5.09939 0.777771 4.16667 1.7105 4.16667 2.8611V13.9722C4.16667 15.1228 5.09939 16.0555 6.25 16.0555H22.9167C24.0673 16.0555 25 15.1228 25 13.9722ZM11.1111 4.94444C11.1111 6.09504 10.1784 7.02777 9.02778 7.02777C7.87717 7.02777 6.94444 6.09504 6.94444 4.94444C6.94444 3.79383 7.87717 2.8611 9.02778 2.8611C10.1784 2.8611 11.1111 3.79383 11.1111 4.94444ZM6.94444 11.1944L9.35395 8.78493C9.55733 8.58155 9.88711 8.58155 10.0905 8.78493L11.8056 10.5L17.6873 4.61827C17.8907 4.41488 18.2204 4.41488 18.4239 4.61827L22.2222 8.41666V13.2778H6.94444V11.1944Z" fill="#919191"/>
</svg>
