<svg width="22" height="25" viewBox="0 0 22 25" fill="none" xmlns="http://www.w3.org/2000/svg">
<path d="M2.25079 12.2067L2.17929 12.1368L2.25079 12.2067L12.493 1.73009C14.6176 -0.443267 18.0704 -0.443457 20.1952 1.73009C22.3003 3.88334 22.3029 7.35808 20.1953 9.51387C20.1953 9.51388 20.1952 9.5139 20.1952 9.51391L11.2671 18.6375L11.2671 18.6375C9.84904 20.088 7.53284 20.0678 6.13874 18.5901C4.79576 17.1666 4.83786 14.9082 6.20841 13.5063L13.2271 6.33668C13.4903 6.06784 13.9216 6.06325 14.1904 6.32642L15.3067 7.41914C15.5756 7.68236 15.5801 8.11367 15.317 8.38251L8.29899 15.5515L8.29894 15.5516C8.02412 15.8327 8.00188 16.3032 8.26606 16.5832L8.33881 16.5146L8.26607 16.5832C8.51827 16.8506 8.91938 16.8554 9.17629 16.5926C9.17631 16.5926 9.17632 16.5926 9.17634 16.5926L18.1045 7.46904L18.1045 7.469C19.1002 6.45054 19.1001 4.79358 18.104 3.7746L18.0325 3.84451L18.104 3.7746C17.1278 2.77614 15.5609 2.77562 14.5843 3.7746L4.34206 14.2512L4.41356 14.3211L4.34206 14.2512C2.6077 16.0253 2.57955 18.8977 4.2836 20.6559C5.98346 22.4099 8.73258 22.4121 10.4356 20.6702L18.837 12.0765L18.7655 12.0066L18.837 12.0765C19.1 11.8075 19.5313 11.8026 19.8004 12.0656L20.9174 13.1576C21.1864 13.4206 21.1913 13.8519 20.9283 14.121L20.9998 14.1909L20.9283 14.121L12.5269 22.7146C9.65751 25.6497 5.01689 25.615 2.18342 22.6913L2.11161 22.7609L2.18342 22.6913C-0.631169 19.7871 -0.579605 15.1018 2.25079 12.2067Z" fill="#919191" stroke="white" stroke-width="0.2"/>
</svg>
