<svg width="25" height="23" viewBox="0 0 25 23" fill="none" xmlns="http://www.w3.org/2000/svg">
<path d="M7.85437 17.7984L7.8539 17.7985C7.47526 17.8412 7.15446 17.5204 7.19721 17.1418L7.19726 17.1413L7.63463 13.2007L17.0518 3.78355C17.1191 3.71625 17.2299 3.71625 17.2972 3.78355L21.2121 7.69848C21.2794 7.76578 21.2794 7.87658 21.2121 7.94388L11.795 17.361L7.85437 17.7984ZM16.6667 19.6901H16.9167V19.4401V15.0217C16.9167 14.9528 16.9442 14.8839 16.9976 14.8273L18.7303 13.0946C18.7305 13.0944 18.7307 13.0942 18.7308 13.0941C18.9054 12.9227 19.1944 13.047 19.1944 13.2856V20.1345C19.1944 21.1467 18.3732 21.9679 17.3611 21.9679H2.08333C1.07123 21.9679 0.25 21.1467 0.25 20.1345V4.85677C0.25 3.84467 1.07123 3.02344 2.08333 3.02344H14.4878C14.731 3.02344 14.8513 3.31507 14.68 3.48642L12.9461 5.22029C12.8895 5.27369 12.8207 5.30122 12.7517 5.30122H2.77778H2.52778V5.55122V19.4401V19.6901H2.77778H16.6667ZM22.2104 0.671568L24.3284 2.78962C24.8901 3.35126 24.891 4.26515 24.3283 4.83207C24.3281 4.83221 24.328 4.83235 24.3279 4.83248L22.792 6.36836C22.7247 6.43566 22.6139 6.43566 22.5466 6.36836L18.6316 2.45343C18.5643 2.38613 18.5643 2.27533 18.6316 2.20803L20.1675 0.672147C20.1676 0.672088 20.1676 0.672029 20.1677 0.67197C20.7346 0.108966 21.6487 0.109855 22.2104 0.671568Z" fill="black" stroke="white" stroke-width="0.5"/>
</svg>
